<svg width="86" height="24" viewBox="0 0 86 24" fill="none" xmlns="http://www.w3.org/2000/svg">
<mask id="mask0_18168_6679" style="mask-type:alpha" maskUnits="userSpaceOnUse" x="0" y="0" width="25" height="24">
<rect x="0.499512" width="24" height="24" fill="#D9D9D9"/>
</mask>
<g mask="url(#mask0_18168_6679)">
<path d="M7.49951 21C6.94951 21 6.47868 20.8042 6.08701 20.4125C5.69535 20.0208 5.49951 19.55 5.49951 19V6C5.21618 6 4.97868 5.90417 4.78701 5.7125C4.59535 5.52083 4.49951 5.28333 4.49951 5C4.49951 4.71667 4.59535 4.47917 4.78701 4.2875C4.97868 4.09583 5.21618 4 5.49951 4H9.49951C9.49951 3.71667 9.59535 3.47917 9.78701 3.2875C9.97868 3.09583 10.2162 3 10.4995 3H14.4995C14.7828 3 15.0203 3.09583 15.212 3.2875C15.4037 3.47917 15.4995 3.71667 15.4995 4H19.4995C19.7828 4 20.0203 4.09583 20.212 4.2875C20.4037 4.47917 20.4995 4.71667 20.4995 5C20.4995 5.28333 20.4037 5.52083 20.212 5.7125C20.0203 5.90417 19.7828 6 19.4995 6V19C19.4995 19.55 19.3037 20.0208 18.912 20.4125C18.5203 20.8042 18.0495 21 17.4995 21H7.49951ZM7.49951 6V19H17.4995V6H7.49951ZM9.49951 16C9.49951 16.2833 9.59535 16.5208 9.78701 16.7125C9.97868 16.9042 10.2162 17 10.4995 17C10.7828 17 11.0203 16.9042 11.212 16.7125C11.4037 16.5208 11.4995 16.2833 11.4995 16V9C11.4995 8.71667 11.4037 8.47917 11.212 8.2875C11.0203 8.09583 10.7828 8 10.4995 8C10.2162 8 9.97868 8.09583 9.78701 8.2875C9.59535 8.47917 9.49951 8.71667 9.49951 9V16ZM13.4995 16C13.4995 16.2833 13.5953 16.5208 13.787 16.7125C13.9787 16.9042 14.2162 17 14.4995 17C14.7828 17 15.0203 16.9042 15.212 16.7125C15.4037 16.5208 15.4995 16.2833 15.4995 16V9C15.4995 8.71667 15.4037 8.47917 15.212 8.2875C15.0203 8.09583 14.7828 8 14.4995 8C14.2162 8 13.9787 8.09583 13.787 8.2875C13.5953 8.47917 13.4995 8.71667 13.4995 9V16Z" fill="#005DFF"/>
</g>
<path d="M43.4136 12.6797C43.4136 14.5599 42.8771 16 41.8042 17C40.7365 18 39.1922 18.5 37.1714 18.5H33.937V7.07812H37.5229C39.3875 7.07812 40.8354 7.57031 41.8667 8.55469C42.8979 9.53906 43.4136 10.9141 43.4136 12.6797ZM40.8979 12.7422C40.8979 10.2891 39.8146 9.0625 37.6479 9.0625H36.3589V16.5H37.3979C39.7313 16.5 40.8979 15.2474 40.8979 12.7422ZM49.2104 11.2969C48.7052 11.2969 48.3094 11.4583 48.0229 11.7812C47.7365 12.099 47.5724 12.5521 47.5308 13.1406H50.8745C50.8641 12.5521 50.7104 12.099 50.4136 11.7812C50.1167 11.4583 49.7157 11.2969 49.2104 11.2969ZM49.5464 18.6562C48.1401 18.6562 47.0412 18.2682 46.2495 17.4922C45.4578 16.7161 45.062 15.6172 45.062 14.1953C45.062 12.7318 45.4266 11.6016 46.1558 10.8047C46.8901 10.0026 47.9032 9.60156 49.1948 9.60156C50.4292 9.60156 51.3901 9.95312 52.0776 10.6562C52.7651 11.3594 53.1089 12.3307 53.1089 13.5703V14.7266H47.4761C47.5021 15.4036 47.7026 15.9323 48.0776 16.3125C48.4526 16.6927 48.9787 16.8828 49.6558 16.8828C50.1818 16.8828 50.6792 16.8281 51.1479 16.7188C51.6167 16.6094 52.1063 16.4349 52.6167 16.1953V18.0391C52.2 18.2474 51.7547 18.401 51.2808 18.5C50.8068 18.6042 50.2287 18.6562 49.5464 18.6562ZM57.4292 18.5H55.0464V6.34375H57.4292V18.5ZM63.5542 11.2969C63.049 11.2969 62.6532 11.4583 62.3667 11.7812C62.0802 12.099 61.9162 12.5521 61.8745 13.1406H65.2183C65.2078 12.5521 65.0542 12.099 64.7573 11.7812C64.4604 11.4583 64.0594 11.2969 63.5542 11.2969ZM63.8901 18.6562C62.4839 18.6562 61.3849 18.2682 60.5933 17.4922C59.8016 16.7161 59.4058 15.6172 59.4058 14.1953C59.4058 12.7318 59.7703 11.6016 60.4995 10.8047C61.2339 10.0026 62.2469 9.60156 63.5386 9.60156C64.7729 9.60156 65.7339 9.95312 66.4214 10.6562C67.1089 11.3594 67.4526 12.3307 67.4526 13.5703V14.7266H61.8198C61.8459 15.4036 62.0464 15.9323 62.4214 16.3125C62.7964 16.6927 63.3224 16.8828 63.9995 16.8828C64.5256 16.8828 65.0229 16.8281 65.4917 16.7188C65.9604 16.6094 66.45 16.4349 66.9604 16.1953V18.0391C66.5438 18.2474 66.0985 18.401 65.6245 18.5C65.1506 18.6042 64.5724 18.6562 63.8901 18.6562ZM73.0698 16.7578C73.4865 16.7578 73.9865 16.6667 74.5698 16.4844V18.2578C73.9761 18.5234 73.2469 18.6562 72.3823 18.6562C71.4292 18.6562 70.7339 18.4167 70.2964 17.9375C69.8641 17.4531 69.6479 16.7292 69.6479 15.7656V11.5547H68.5073V10.5469L69.8198 9.75L70.5073 7.90625H72.0308V9.76562H74.4761V11.5547H72.0308V15.7656C72.0308 16.1042 72.1245 16.3542 72.312 16.5156C72.5047 16.6771 72.7573 16.7578 73.0698 16.7578ZM79.9604 11.2969C79.4552 11.2969 79.0594 11.4583 78.7729 11.7812C78.4865 12.099 78.3224 12.5521 78.2808 13.1406H81.6245C81.6141 12.5521 81.4604 12.099 81.1636 11.7812C80.8667 11.4583 80.4657 11.2969 79.9604 11.2969ZM80.2964 18.6562C78.8901 18.6562 77.7912 18.2682 76.9995 17.4922C76.2078 16.7161 75.812 15.6172 75.812 14.1953C75.812 12.7318 76.1766 11.6016 76.9058 10.8047C77.6401 10.0026 78.6532 9.60156 79.9448 9.60156C81.1792 9.60156 82.1401 9.95312 82.8276 10.6562C83.5151 11.3594 83.8589 12.3307 83.8589 13.5703V14.7266H78.2261C78.2521 15.4036 78.4526 15.9323 78.8276 16.3125C79.2026 16.6927 79.7287 16.8828 80.4058 16.8828C80.9318 16.8828 81.4292 16.8281 81.8979 16.7188C82.3667 16.6094 82.8563 16.4349 83.3667 16.1953V18.0391C82.95 18.2474 82.5047 18.401 82.0308 18.5C81.5568 18.6042 80.9787 18.6562 80.2964 18.6562Z" fill="#005DFF"/>
</svg>
