<svg width="81" height="24" viewBox="0 0 81 24" fill="none" xmlns="http://www.w3.org/2000/svg">
<mask id="mask0_44823_470" style="mask-type:alpha" maskUnits="userSpaceOnUse" x="0" y="0" width="24" height="24">
<rect width="24" height="24" fill="#D9D9D9"/>
</mask>
<g mask="url(#mask0_44823_470)">
<path d="M7 21C6.45 21 5.97917 20.8042 5.5875 20.4125C5.19583 20.0208 5 19.55 5 19V6C4.71667 6 4.47917 5.90417 4.2875 5.7125C4.09583 5.52083 4 5.28333 4 5C4 4.71667 4.09583 4.47917 4.2875 4.2875C4.47917 4.09583 4.71667 4 5 4H9C9 3.71667 9.09583 3.47917 9.2875 3.2875C9.47917 3.09583 9.71667 3 10 3H14C14.2833 3 14.5208 3.09583 14.7125 3.2875C14.9042 3.47917 15 3.71667 15 4H19C19.2833 4 19.5208 4.09583 19.7125 4.2875C19.9042 4.47917 20 4.71667 20 5C20 5.28333 19.9042 5.52083 19.7125 5.7125C19.5208 5.90417 19.2833 6 19 6V19C19 19.55 18.8042 20.0208 18.4125 20.4125C18.0208 20.8042 17.55 21 17 21H7ZM7 6V19H17V6H7ZM9 16C9 16.2833 9.09583 16.5208 9.2875 16.7125C9.47917 16.9042 9.71667 17 10 17C10.2833 17 10.5208 16.9042 10.7125 16.7125C10.9042 16.5208 11 16.2833 11 16V9C11 8.71667 10.9042 8.47917 10.7125 8.2875C10.5208 8.09583 10.2833 8 10 8C9.71667 8 9.47917 8.09583 9.2875 8.2875C9.09583 8.47917 9 8.71667 9 9V16ZM13 16C13 16.2833 13.0958 16.5208 13.2875 16.7125C13.4792 16.9042 13.7167 17 14 17C14.2833 17 14.5208 16.9042 14.7125 16.7125C14.9042 16.5208 15 16.2833 15 16V9C15 8.71667 14.9042 8.47917 14.7125 8.2875C14.5208 8.09583 14.2833 8 14 8C13.7167 8 13.4792 8.09583 13.2875 8.2875C13.0958 8.47917 13 8.71667 13 9V16Z" fill="#4589FF"/>
</g>
<path d="M42.6328 12.6797C42.6328 13.9661 42.3984 15.0417 41.9297 15.9062C41.4609 16.7656 40.7812 17.4141 39.8906 17.8516C39.0052 18.2839 37.9297 18.5 36.6641 18.5H33.5625V7.07812H37.0078C38.1693 7.07812 39.1693 7.29167 40.0078 7.71875C40.8464 8.14062 41.4922 8.76823 41.9453 9.60156C42.4036 10.4297 42.6328 11.4557 42.6328 12.6797ZM41.2344 12.7266C41.2344 11.7005 41.0625 10.8542 40.7188 10.1875C40.3802 9.52083 39.8802 9.02604 39.2188 8.70312C38.5625 8.375 37.7578 8.21094 36.8047 8.21094H34.8906V17.3594H36.5078C38.0807 17.3594 39.2604 16.9714 40.0469 16.1953C40.8385 15.4193 41.2344 14.263 41.2344 12.7266ZM48.2734 9.78125C49.0026 9.78125 49.6276 9.94271 50.1484 10.2656C50.6693 10.5885 51.0677 11.0417 51.3438 11.625C51.6198 12.2031 51.7578 12.8802 51.7578 13.6562V14.4609H45.8438C45.8594 15.4661 46.1094 16.2318 46.5938 16.7578C47.0781 17.2839 47.7604 17.5469 48.6406 17.5469C49.1823 17.5469 49.6615 17.4974 50.0781 17.3984C50.4948 17.2995 50.9271 17.1536 51.375 16.9609V18.1016C50.9427 18.2943 50.513 18.4349 50.0859 18.5234C49.6641 18.612 49.1641 18.6562 48.5859 18.6562C47.763 18.6562 47.0443 18.4896 46.4297 18.1562C45.8203 17.8177 45.3464 17.3229 45.0078 16.6719C44.6693 16.0208 44.5 15.224 44.5 14.2812C44.5 13.3594 44.6536 12.5625 44.9609 11.8906C45.2734 11.2135 45.7109 10.6927 46.2734 10.3281C46.8411 9.96354 47.5078 9.78125 48.2734 9.78125ZM48.2578 10.8438C47.5651 10.8438 47.013 11.0703 46.6016 11.5234C46.1901 11.9766 45.9453 12.6094 45.8672 13.4219H50.3984C50.3932 12.9115 50.3125 12.4635 50.1562 12.0781C50.0052 11.6875 49.7734 11.3854 49.4609 11.1719C49.1484 10.9531 48.7474 10.8438 48.2578 10.8438ZM55.2656 18.5H53.9609V6.34375H55.2656V18.5ZM61.3047 9.78125C62.0339 9.78125 62.6589 9.94271 63.1797 10.2656C63.7005 10.5885 64.099 11.0417 64.375 11.625C64.651 12.2031 64.7891 12.8802 64.7891 13.6562V14.4609H58.875C58.8906 15.4661 59.1406 16.2318 59.625 16.7578C60.1094 17.2839 60.7917 17.5469 61.6719 17.5469C62.2135 17.5469 62.6927 17.4974 63.1094 17.3984C63.526 17.2995 63.9583 17.1536 64.4062 16.9609V18.1016C63.974 18.2943 63.5443 18.4349 63.1172 18.5234C62.6953 18.612 62.1953 18.6562 61.6172 18.6562C60.7943 18.6562 60.0755 18.4896 59.4609 18.1562C58.8516 17.8177 58.3776 17.3229 58.0391 16.6719C57.7005 16.0208 57.5312 15.224 57.5312 14.2812C57.5312 13.3594 57.6849 12.5625 57.9922 11.8906C58.3047 11.2135 58.7422 10.6927 59.3047 10.3281C59.8724 9.96354 60.5391 9.78125 61.3047 9.78125ZM61.2891 10.8438C60.5964 10.8438 60.0443 11.0703 59.6328 11.5234C59.2214 11.9766 58.9766 12.6094 58.8984 13.4219H63.4297C63.4245 12.9115 63.3438 12.4635 63.1875 12.0781C63.0365 11.6875 62.8047 11.3854 62.4922 11.1719C62.1797 10.9531 61.7786 10.8438 61.2891 10.8438ZM69.7578 17.5938C69.9714 17.5938 70.1901 17.5755 70.4141 17.5391C70.638 17.5026 70.8203 17.4583 70.9609 17.4062V18.4141C70.8099 18.4818 70.599 18.5391 70.3281 18.5859C70.0625 18.6328 69.8021 18.6562 69.5469 18.6562C69.0938 18.6562 68.6823 18.5781 68.3125 18.4219C67.9427 18.2604 67.6458 17.9896 67.4219 17.6094C67.2031 17.2292 67.0938 16.7031 67.0938 16.0312V10.9531H65.875V10.3203L67.1016 9.8125L67.6172 7.95312H68.3984V9.9375H70.9062V10.9531H68.3984V15.9922C68.3984 16.5286 68.5208 16.9297 68.7656 17.1953C69.0156 17.4609 69.3464 17.5938 69.7578 17.5938ZM75.9922 9.78125C76.7214 9.78125 77.3464 9.94271 77.8672 10.2656C78.388 10.5885 78.7865 11.0417 79.0625 11.625C79.3385 12.2031 79.4766 12.8802 79.4766 13.6562V14.4609H73.5625C73.5781 15.4661 73.8281 16.2318 74.3125 16.7578C74.7969 17.2839 75.4792 17.5469 76.3594 17.5469C76.901 17.5469 77.3802 17.4974 77.7969 17.3984C78.2135 17.2995 78.6458 17.1536 79.0938 16.9609V18.1016C78.6615 18.2943 78.2318 18.4349 77.8047 18.5234C77.3828 18.612 76.8828 18.6562 76.3047 18.6562C75.4818 18.6562 74.763 18.4896 74.1484 18.1562C73.5391 17.8177 73.0651 17.3229 72.7266 16.6719C72.388 16.0208 72.2188 15.224 72.2188 14.2812C72.2188 13.3594 72.3724 12.5625 72.6797 11.8906C72.9922 11.2135 73.4297 10.6927 73.9922 10.3281C74.5599 9.96354 75.2266 9.78125 75.9922 9.78125ZM75.9766 10.8438C75.2839 10.8438 74.7318 11.0703 74.3203 11.5234C73.9089 11.9766 73.6641 12.6094 73.5859 13.4219H78.1172C78.112 12.9115 78.0312 12.4635 77.875 12.0781C77.724 11.6875 77.4922 11.3854 77.1797 11.1719C76.8672 10.9531 76.4661 10.8438 75.9766 10.8438Z" fill="#2A3647"/>
</svg>
