<svg width="61" height="24" viewBox="0 0 61 24" fill="none" xmlns="http://www.w3.org/2000/svg">
<mask id="mask0_44823_476" style="mask-type:alpha" maskUnits="userSpaceOnUse" x="0" y="0" width="24" height="24">
<rect width="24" height="24" fill="#D9D9D9"/>
</mask>
<g mask="url(#mask0_44823_476)">
<path d="M5 19H6.4L15.025 10.375L13.625 8.975L5 17.6V19ZM19.3 8.925L15.05 4.725L16.45 3.325C16.8333 2.94167 17.3042 2.75 17.8625 2.75C18.4208 2.75 18.8917 2.94167 19.275 3.325L20.675 4.725C21.0583 5.10833 21.2583 5.57083 21.275 6.1125C21.2917 6.65417 21.1083 7.11667 20.725 7.5L19.3 8.925ZM17.85 10.4L7.25 21H3V16.75L13.6 6.15L17.85 10.4Z" fill="#4589FF"/>
</g>
<path d="M39.9219 18.5H33.5625V7.07812H39.9219V8.25H34.8906V11.9453H39.6328V13.1016H34.8906V17.3281H39.9219V18.5ZM45.3047 18.6562C44.2214 18.6562 43.362 18.2865 42.7266 17.5469C42.0964 16.8073 41.7812 15.7083 41.7812 14.25C41.7812 12.776 42.1042 11.6641 42.75 10.9141C43.3958 10.1589 44.2552 9.78125 45.3281 9.78125C45.7812 9.78125 46.1771 9.84115 46.5156 9.96094C46.8542 10.0807 47.1458 10.2422 47.3906 10.4453C47.6354 10.6432 47.8411 10.8698 48.0078 11.125H48.1016C48.0807 10.9635 48.0599 10.7422 48.0391 10.4609C48.0182 10.1797 48.0078 9.95052 48.0078 9.77344V6.34375H49.3047V18.5H48.2578L48.0625 17.2812H48.0078C47.8464 17.5365 47.6406 17.7682 47.3906 17.9766C47.1458 18.1849 46.8516 18.3516 46.5078 18.4766C46.1693 18.5964 45.7682 18.6562 45.3047 18.6562ZM45.5078 17.5781C46.4245 17.5781 47.0729 17.3177 47.4531 16.7969C47.8333 16.276 48.0234 15.5026 48.0234 14.4766V14.2422C48.0234 13.1536 47.8411 12.3177 47.4766 11.7344C47.1172 11.151 46.4609 10.8594 45.5078 10.8594C44.7109 10.8594 44.1146 11.1667 43.7188 11.7812C43.3229 12.3906 43.125 13.224 43.125 14.2812C43.125 15.3333 43.3203 16.1458 43.7109 16.7188C44.1068 17.2917 44.7057 17.5781 45.5078 17.5781ZM53.3516 9.9375V18.5H52.0547V9.9375H53.3516ZM52.7188 6.73438C52.9323 6.73438 53.1146 6.80469 53.2656 6.94531C53.4219 7.08073 53.5 7.29427 53.5 7.58594C53.5 7.8724 53.4219 8.08594 53.2656 8.22656C53.1146 8.36719 52.9323 8.4375 52.7188 8.4375C52.4948 8.4375 52.3073 8.36719 52.1562 8.22656C52.0104 8.08594 51.9375 7.8724 51.9375 7.58594C51.9375 7.29427 52.0104 7.08073 52.1562 6.94531C52.3073 6.80469 52.4948 6.73438 52.7188 6.73438ZM58.8672 17.5938C59.0807 17.5938 59.2995 17.5755 59.5234 17.5391C59.7474 17.5026 59.9297 17.4583 60.0703 17.4062V18.4141C59.9193 18.4818 59.7083 18.5391 59.4375 18.5859C59.1719 18.6328 58.9115 18.6562 58.6562 18.6562C58.2031 18.6562 57.7917 18.5781 57.4219 18.4219C57.0521 18.2604 56.7552 17.9896 56.5312 17.6094C56.3125 17.2292 56.2031 16.7031 56.2031 16.0312V10.9531H54.9844V10.3203L56.2109 9.8125L56.7266 7.95312H57.5078V9.9375H60.0156V10.9531H57.5078V15.9922C57.5078 16.5286 57.6302 16.9297 57.875 17.1953C58.125 17.4609 58.4557 17.5938 58.8672 17.5938Z" fill="#2A3647"/>
</svg>
