<svg width="64" height="24" viewBox="0 0 64 24" fill="none" xmlns="http://www.w3.org/2000/svg">
<mask id="mask0_16776_5150" style="mask-type:alpha" maskUnits="userSpaceOnUse" x="0" y="0" width="25" height="24">
<rect x="0.499512" width="24" height="24" fill="#D9D9D9"/>
</mask>
<g mask="url(#mask0_16776_5150)">
<path d="M5.49951 19H6.89951L15.5245 10.375L14.1245 8.975L5.49951 17.6V19ZM19.7995 8.925L15.5495 4.725L16.9495 3.325C17.3328 2.94167 17.8037 2.75 18.362 2.75C18.9203 2.75 19.3912 2.94167 19.7745 3.325L21.1745 4.725C21.5578 5.10833 21.7578 5.57083 21.7745 6.1125C21.7912 6.65417 21.6078 7.11667 21.2245 7.5L19.7995 8.925ZM18.3495 10.4L7.74951 21H3.49951V16.75L14.0995 6.15L18.3495 10.4Z" fill="#005DFF"/>
</g>
<path d="M40.5151 18.5H33.937V7.07812H40.5151V9.0625H36.3589V11.5703H40.2261V13.5547H36.3589V16.5H40.5151V18.5ZM45.4839 18.6562C44.4578 18.6562 43.6506 18.2578 43.062 17.4609C42.4787 16.6641 42.187 15.5599 42.187 14.1484C42.187 12.7161 42.4839 11.6016 43.0776 10.8047C43.6766 10.0026 44.4995 9.60156 45.5464 9.60156C46.6453 9.60156 47.4839 10.0286 48.062 10.8828H48.1401C48.0203 10.2318 47.9604 9.65104 47.9604 9.14062V6.34375H50.3511V18.5H48.5229L48.062 17.3672H47.9604C47.4188 18.2266 46.5933 18.6562 45.4839 18.6562ZM46.3198 16.7578C46.9292 16.7578 47.3745 16.5807 47.6558 16.2266C47.9422 15.8724 48.0985 15.2708 48.1245 14.4219V14.1641C48.1245 13.2266 47.9787 12.5547 47.687 12.1484C47.4006 11.7422 46.9318 11.5391 46.2808 11.5391C45.7495 11.5391 45.3354 11.7656 45.0386 12.2188C44.7469 12.6667 44.6011 13.3203 44.6011 14.1797C44.6011 15.0391 44.7495 15.6849 45.0464 16.1172C45.3433 16.5443 45.7677 16.7578 46.3198 16.7578ZM52.7417 7.50781C52.7417 6.73177 53.174 6.34375 54.0386 6.34375C54.9032 6.34375 55.3354 6.73177 55.3354 7.50781C55.3354 7.8776 55.2261 8.16667 55.0073 8.375C54.7938 8.57812 54.4709 8.67969 54.0386 8.67969C53.174 8.67969 52.7417 8.28906 52.7417 7.50781ZM55.2261 18.5H52.8433V9.76562H55.2261V18.5ZM61.4136 16.7578C61.8302 16.7578 62.3302 16.6667 62.9136 16.4844V18.2578C62.3198 18.5234 61.5907 18.6562 60.7261 18.6562C59.7729 18.6562 59.0776 18.4167 58.6401 17.9375C58.2078 17.4531 57.9917 16.7292 57.9917 15.7656V11.5547H56.8511V10.5469L58.1636 9.75L58.8511 7.90625H60.3745V9.76562H62.8198V11.5547H60.3745V15.7656C60.3745 16.1042 60.4683 16.3542 60.6558 16.5156C60.8485 16.6771 61.1011 16.7578 61.4136 16.7578Z" fill="#005DFF"/>
</svg>
