<svg width="138" height="32" viewBox="0 0 138 32" fill="none" xmlns="http://www.w3.org/2000/svg">
<path d="M26.5029 23.3967L21.9478 11.3918H21.8735C21.8983 11.6454 21.9199 11.9547 21.9385 12.3196C21.957 12.6845 21.9725 13.0834 21.9849 13.5164C21.9972 13.9431 22.0034 14.3792 22.0034 14.8245V23.3967H20.5376V9.83325H22.8755L27.1709 21.1145H27.2358L31.5962 9.83325H33.9155V23.3967H32.3569V14.7131C32.3569 14.3111 32.3631 13.9091 32.3755 13.5071C32.3879 13.0989 32.4033 12.7154 32.4219 12.3567C32.4404 11.9918 32.459 11.6764 32.4775 11.4104H32.4033L27.7925 23.3967H26.5029ZM41.3096 13.0432C42.1755 13.0432 42.9176 13.2349 43.5361 13.6184C44.1546 14.0019 44.6278 14.54 44.9556 15.2327C45.2834 15.9192 45.4473 16.7232 45.4473 17.6448V18.6003H38.4243C38.4429 19.794 38.7397 20.7032 39.3149 21.3279C39.8901 21.9526 40.7004 22.2649 41.7456 22.2649C42.3888 22.2649 42.9578 22.2061 43.4526 22.0886C43.9474 21.9711 44.4608 21.7979 44.9927 21.5691V22.9236C44.4793 23.1524 43.9691 23.3194 43.4619 23.4246C42.9609 23.5297 42.3672 23.5823 41.6807 23.5823C40.7035 23.5823 39.8499 23.3844 39.1201 22.9885C38.3965 22.5865 37.8337 21.9989 37.4316 21.2258C37.0296 20.4527 36.8286 19.5064 36.8286 18.387C36.8286 17.2922 37.0111 16.3459 37.376 15.5481C37.7471 14.7441 38.2666 14.1256 38.9346 13.6926C39.6087 13.2597 40.4004 13.0432 41.3096 13.0432ZM41.291 14.3049C40.4684 14.3049 39.8128 14.574 39.3242 15.1121C38.8356 15.6501 38.5449 16.4016 38.4521 17.3665H43.833C43.8268 16.7603 43.731 16.2284 43.5454 15.7708C43.366 15.3069 43.0908 14.9482 42.7197 14.6946C42.3486 14.4348 41.8724 14.3049 41.291 14.3049ZM51.6816 23.5823C50.3952 23.5823 49.3747 23.1431 48.6201 22.2649C47.8717 21.3866 47.4976 20.0816 47.4976 18.3499C47.4976 16.5995 47.881 15.2791 48.6479 14.3884C49.4149 13.4916 50.4354 13.0432 51.7095 13.0432C52.2476 13.0432 52.7176 13.1143 53.1196 13.2566C53.5216 13.3988 53.868 13.5906 54.1587 13.8318C54.4494 14.0668 54.6937 14.3359 54.8916 14.6389H55.0029C54.9782 14.4472 54.9535 14.1843 54.9287 13.8503C54.904 13.5164 54.8916 13.2442 54.8916 13.0339V8.96118H56.4316V23.3967H55.1885L54.9565 21.9495H54.8916C54.6999 22.2525 54.4556 22.5278 54.1587 22.7751C53.868 23.0225 53.5186 23.2205 53.1104 23.3689C52.7083 23.5111 52.2321 23.5823 51.6816 23.5823ZM51.9229 22.302C53.0114 22.302 53.7814 21.9928 54.2329 21.3743C54.6844 20.7558 54.9102 19.8373 54.9102 18.6189V18.3406C54.9102 17.0479 54.6937 16.0553 54.2607 15.3625C53.834 14.6698 53.0547 14.3235 51.9229 14.3235C50.9766 14.3235 50.2684 14.6884 49.7983 15.4182C49.3283 16.1418 49.0933 17.1314 49.0933 18.387C49.0933 19.6363 49.3252 20.6012 49.7891 21.2815C50.2591 21.9618 50.9704 22.302 51.9229 22.302ZM61.2373 13.2288V23.3967H59.6973V13.2288H61.2373ZM60.4858 9.42505C60.7394 9.42505 60.9559 9.50854 61.1353 9.67554C61.3208 9.83634 61.4136 10.0899 61.4136 10.4363C61.4136 10.7764 61.3208 11.03 61.1353 11.197C60.9559 11.364 60.7394 11.4475 60.4858 11.4475C60.2199 11.4475 59.9972 11.364 59.8179 11.197C59.6447 11.03 59.5581 10.7764 59.5581 10.4363C59.5581 10.0899 59.6447 9.83634 59.8179 9.67554C59.9972 9.50854 60.2199 9.42505 60.4858 9.42505ZM72.8989 13.2288V23.3967H71.6372L71.4146 21.968H71.3311C71.1208 22.3206 70.8486 22.6174 70.5146 22.8586C70.1807 23.0999 69.8034 23.2792 69.3828 23.3967C68.9684 23.5204 68.5262 23.5823 68.0562 23.5823C67.2521 23.5823 66.578 23.4524 66.0337 23.1926C65.4894 22.9329 65.0781 22.5308 64.7998 21.9866C64.5277 21.4423 64.3916 20.7434 64.3916 19.8899V13.2288H65.9502V19.7786C65.9502 20.6259 66.1419 21.2598 66.5254 21.6804C66.9089 22.0948 67.4933 22.302 68.2788 22.302C69.0334 22.302 69.6333 22.1597 70.0786 21.8752C70.5301 21.5907 70.8548 21.1733 71.0527 20.6228C71.2507 20.0662 71.3496 19.3858 71.3496 18.5818V13.2288H72.8989ZM87.1953 13.0432C88.3148 13.0432 89.159 13.337 89.728 13.9246C90.297 14.5059 90.5815 15.443 90.5815 16.7356V23.3967H89.0601V16.8098C89.0601 15.9872 88.8807 15.3718 88.522 14.9636C88.1694 14.5492 87.6437 14.342 86.9448 14.342C85.9614 14.342 85.2471 14.6265 84.8018 15.1956C84.3564 15.7646 84.1338 16.6026 84.1338 17.7097V23.3967H82.603V16.8098C82.603 16.2594 82.5226 15.8017 82.3618 15.4368C82.2072 15.0719 81.9722 14.7997 81.6567 14.6204C81.3475 14.4348 80.9548 14.342 80.4785 14.342C79.8044 14.342 79.2632 14.4812 78.855 14.7595C78.4468 15.0378 78.1499 15.4522 77.9644 16.0027C77.785 16.547 77.6953 17.218 77.6953 18.0159V23.3967H76.1553V13.2288H77.3984L77.6304 14.6667H77.7139C77.918 14.3142 78.1746 14.0173 78.4839 13.7761C78.7931 13.5349 79.1395 13.3525 79.5229 13.2288C79.9064 13.1051 80.3146 13.0432 80.7476 13.0432C81.5207 13.0432 82.167 13.1886 82.6865 13.4792C83.2122 13.7638 83.5926 14.1998 83.8276 14.7874H83.9111C84.2451 14.1998 84.7028 13.7638 85.2842 13.4792C85.8656 13.1886 86.5026 13.0432 87.1953 13.0432Z" fill="black"/>
<g clip-path="url(#clip0_454_3281)">
<path d="M118.751 19.0634H103.614C103.367 19.0634 103.13 18.9646 102.955 18.7886C102.78 18.6127 102.682 18.374 102.682 18.1252C102.682 17.8763 102.78 17.6377 102.955 17.4617C103.13 17.2857 103.367 17.1869 103.614 17.1869H118.751C118.998 17.1869 119.235 17.2857 119.409 17.4617C119.584 17.6377 119.682 17.8763 119.682 18.1252C119.682 18.374 119.584 18.6127 119.409 18.7886C119.235 18.9646 118.998 19.0634 118.751 19.0634Z" fill="#FF7A00"/>
<path d="M118.751 14.6066H103.614C103.367 14.6066 103.13 14.5078 102.955 14.3318C102.78 14.1559 102.682 13.9172 102.682 13.6684C102.682 13.4195 102.78 13.1809 102.955 13.0049C103.13 12.829 103.367 12.7301 103.614 12.7301H118.751C118.998 12.7301 119.235 12.829 119.409 13.0049C119.584 13.1809 119.682 13.4195 119.682 13.6684C119.682 13.9172 119.584 14.1559 119.409 14.3318C119.235 14.5078 118.998 14.6066 118.751 14.6066Z" fill="#FF7A00"/>
</g>
<defs>
<clipPath id="clip0_454_3281">
<rect width="17" height="6.33333" fill="white" transform="translate(102.682 12.7301)"/>
</clipPath>
</defs>
</svg>
