<svg width="203" height="36" viewBox="0 0 203 36" fill="none" xmlns="http://www.w3.org/2000/svg">
<rect width="203" height="36" rx="8" fill="#0038FF"/>
<path d="M31.2886 27H29.3682L29.3682 12.2656H24.2021V10.5811L36.4321 10.5811V12.2656H31.2886L31.2886 27ZM43.3726 14.4668C44.4207 14.4668 45.3192 14.6989 46.0679 15.1631C46.8166 15.6273 47.3893 16.2786 47.7861 17.1172C48.1829 17.9482 48.3813 18.9215 48.3813 20.0371V21.1938H39.8799C39.9023 22.6388 40.2617 23.7394 40.958 24.4956C41.6543 25.2518 42.6351 25.6299 43.9004 25.6299C44.679 25.6299 45.3678 25.5588 45.9668 25.4165C46.5658 25.2743 47.1872 25.0646 47.8311 24.7876V26.4272C47.2096 26.7043 46.592 26.9064 45.978 27.0337C45.3716 27.161 44.6528 27.2246 43.8218 27.2246C42.6388 27.2246 41.6056 26.985 40.7222 26.5059C39.8462 26.0192 39.1649 25.3079 38.6782 24.3721C38.1916 23.4362 37.9482 22.2907 37.9482 20.9355C37.9482 19.6104 38.1691 18.4648 38.6108 17.499C39.0601 16.5257 39.689 15.777 40.4976 15.2529C41.3136 14.7288 42.272 14.4668 43.3726 14.4668ZM43.3501 15.9941C42.3543 15.9941 41.5607 16.3198 40.9692 16.9712C40.3778 17.6226 40.0259 18.5322 39.9136 19.7002L46.4272 19.7002C46.4198 18.9665 46.3037 18.3226 46.0791 17.7686C45.862 17.207 45.5288 16.7728 45.0796 16.4658C44.6304 16.1514 44.0539 15.9941 43.3501 15.9941ZM56.4785 27.2246C55.3704 27.2246 54.3934 26.9963 53.5474 26.5396C52.7013 26.0828 52.0425 25.3866 51.5708 24.4507C51.0991 23.5148 50.8633 22.3356 50.8633 20.9131C50.8633 19.4232 51.1104 18.2065 51.6045 17.2632C52.1061 16.3123 52.7949 15.6086 53.6709 15.1519C54.5469 14.6951 55.5426 14.4668 56.6582 14.4668C57.2721 14.4668 57.8636 14.5304 58.4326 14.6577C59.0091 14.7775 59.4808 14.931 59.8477 15.1182L59.2861 16.6792C58.9118 16.5295 58.4775 16.3947 57.9834 16.2749C57.4967 16.1551 57.04 16.0952 56.6133 16.0952C55.7598 16.0952 55.0485 16.2786 54.4795 16.6455C53.918 17.0124 53.495 17.5514 53.2104 18.2627C52.9334 18.974 52.7949 19.8499 52.7949 20.8906C52.7949 21.8864 52.9297 22.7362 53.1992 23.4399C53.4762 24.1437 53.8843 24.6828 54.4233 25.0571C54.9699 25.424 55.6512 25.6074 56.4673 25.6074C57.1187 25.6074 57.7064 25.54 58.2305 25.4053C58.7546 25.263 59.23 25.0983 59.6567 24.9111L59.6567 26.5732C59.245 26.7829 58.7845 26.9438 58.2754 27.0562C57.7738 27.1685 57.1748 27.2246 56.4785 27.2246ZM64.4409 9.52539V14.7476C64.4409 15.047 64.4334 15.3503 64.4185 15.6572C64.4035 15.9567 64.3773 16.2337 64.3398 16.4883H64.4634C64.7179 16.054 65.0399 15.6909 65.4292 15.3989C65.826 15.0994 66.2752 14.8748 66.7769 14.7251C67.2785 14.5679 67.8101 14.4893 68.3716 14.4893C69.3599 14.4893 70.1834 14.6465 70.8423 14.9609C71.5086 15.2754 72.0065 15.762 72.3359 16.4209C72.6729 17.0798 72.8413 17.9333 72.8413 18.9814V27H70.9995V19.105C70.9995 18.0793 70.7637 17.3118 70.292 16.8027C69.8278 16.2936 69.1128 16.0391 68.147 16.0391C67.2336 16.0391 66.5036 16.215 65.957 16.5669C65.418 16.9113 65.0286 17.4204 64.7891 18.0942C64.557 18.7681 64.4409 19.5916 64.4409 20.5649V27H62.5767L62.5767 9.52539H64.4409ZM82.5107 14.4668C83.9707 14.4668 85.075 14.8262 85.8237 15.5449C86.5724 16.2562 86.9468 17.4017 86.9468 18.9814V27H85.105V19.105C85.105 18.0793 84.8691 17.3118 84.3975 16.8027C83.9333 16.2936 83.2183 16.0391 82.2524 16.0391C80.8898 16.0391 79.9315 16.4246 79.3774 17.1958C78.8234 17.967 78.5464 19.0863 78.5464 20.5537V27H76.6821V14.6914H78.187L78.4678 16.4658H78.5688C78.8309 16.0316 79.1641 15.6685 79.5684 15.3765C79.9727 15.077 80.4256 14.8524 80.9272 14.7026C81.4289 14.5454 81.9567 14.4668 82.5107 14.4668ZM92.6519 14.6914V27H90.7876V14.6914H92.6519ZM91.7422 10.0869C92.0492 10.0869 92.3112 10.188 92.5283 10.3901C92.7529 10.5848 92.8652 10.8918 92.8652 11.311C92.8652 11.7228 92.7529 12.0298 92.5283 12.2319C92.3112 12.4341 92.0492 12.5352 91.7422 12.5352C91.4202 12.5352 91.1507 12.4341 90.9336 12.2319C90.724 12.0298 90.6191 11.7228 90.6191 11.311C90.6191 10.8918 90.724 10.5848 90.9336 10.3901C91.1507 10.188 91.4202 10.0869 91.7422 10.0869ZM101.535 27.2246C100.427 27.2246 99.45 26.9963 98.604 26.5396C97.758 26.0828 97.0991 25.3866 96.6274 24.4507C96.1558 23.5148 95.9199 22.3356 95.9199 20.9131C95.9199 19.4232 96.167 18.2065 96.6611 17.2632C97.1628 16.3123 97.8516 15.6086 98.7275 15.1519C99.6035 14.6951 100.599 14.4668 101.715 14.4668C102.329 14.4668 102.92 14.5304 103.489 14.6577C104.066 14.7775 104.537 14.931 104.904 15.1182L104.343 16.6792C103.968 16.5295 103.534 16.3947 103.04 16.2749C102.553 16.1551 102.097 16.0952 101.67 16.0952C100.816 16.0952 100.105 16.2786 99.5361 16.6455C98.9746 17.0124 98.5516 17.5514 98.2671 18.2627C97.9901 18.974 97.8516 19.8499 97.8516 20.8906C97.8516 21.8864 97.9863 22.7362 98.2559 23.4399C98.5329 24.1437 98.9409 24.6828 99.48 25.0571C100.027 25.424 100.708 25.6074 101.524 25.6074C102.175 25.6074 102.763 25.54 103.287 25.4053C103.811 25.263 104.287 25.0983 104.713 24.9111V26.5732C104.302 26.7829 103.841 26.9438 103.332 27.0562C102.83 27.1685 102.231 27.2246 101.535 27.2246ZM112.238 14.4893C113.705 14.4893 114.795 14.8187 115.506 15.4775C116.217 16.1364 116.573 17.1883 116.573 18.6333V27H115.214L114.854 25.1807H114.765C114.42 25.6299 114.061 26.008 113.687 26.3149C113.312 26.6144 112.878 26.8428 112.384 27C111.897 27.1497 111.298 27.2246 110.587 27.2246C109.838 27.2246 109.172 27.0936 108.588 26.8315C108.011 26.5695 107.555 26.1727 107.218 25.6411C106.888 25.1095 106.724 24.4357 106.724 23.6196C106.724 22.3918 107.21 21.4484 108.184 20.7896C109.157 20.1307 110.639 19.7713 112.631 19.7114L114.753 19.6216V18.8691C114.753 17.806 114.525 17.061 114.068 16.6343C113.612 16.2075 112.968 15.9941 112.137 15.9941C111.493 15.9941 110.879 16.0877 110.295 16.2749C109.711 16.4621 109.157 16.6829 108.633 16.9375L108.06 15.5225C108.614 15.238 109.25 14.9946 109.969 14.7925C110.688 14.5903 111.444 14.4893 112.238 14.4893ZM114.731 20.9355L112.855 21.0142C111.321 21.0741 110.239 21.3249 109.61 21.7666C108.981 22.2083 108.667 22.8335 108.667 23.6421C108.667 24.3459 108.88 24.8662 109.307 25.2031C109.733 25.54 110.299 25.7085 111.002 25.7085C112.096 25.7085 112.99 25.4053 113.687 24.7988C114.383 24.1924 114.731 23.2827 114.731 22.0698V20.9355ZM122.289 27H120.414V9.52539L122.289 9.52539V27ZM137.529 27H135.608V12.2656H130.442V10.5811H142.672V12.2656L137.529 12.2656V27ZM149.478 14.4893C150.945 14.4893 152.035 14.8187 152.746 15.4775C153.457 16.1364 153.813 17.1883 153.813 18.6333V27H152.454L152.095 25.1807H152.005C151.66 25.6299 151.301 26.008 150.927 26.3149C150.552 26.6144 150.118 26.8428 149.624 27C149.137 27.1497 148.538 27.2246 147.827 27.2246C147.078 27.2246 146.412 27.0936 145.828 26.8315C145.252 26.5695 144.795 26.1727 144.458 25.6411C144.129 25.1095 143.964 24.4357 143.964 23.6196C143.964 22.3918 144.451 21.4484 145.424 20.7896C146.397 20.1307 147.88 19.7713 149.871 19.7114L151.994 19.6216V18.8691C151.994 17.806 151.765 17.061 151.309 16.6343C150.852 16.2075 150.208 15.9941 149.377 15.9941C148.733 15.9941 148.119 16.0877 147.535 16.2749C146.951 16.4621 146.397 16.6829 145.873 16.9375L145.3 15.5225C145.854 15.238 146.491 14.9946 147.209 14.7925C147.928 14.5903 148.684 14.4893 149.478 14.4893ZM151.971 20.9355L150.096 21.0142C148.561 21.0741 147.479 21.3249 146.85 21.7666C146.221 22.2083 145.907 22.8335 145.907 23.6421C145.907 24.3459 146.12 24.8662 146.547 25.2031C146.974 25.54 147.539 25.7085 148.243 25.7085C149.336 25.7085 150.23 25.4053 150.927 24.7988C151.623 24.1924 151.971 23.2827 151.971 22.0698V20.9355ZM165.616 23.6309C165.616 24.417 165.418 25.0796 165.021 25.6187C164.632 26.1502 164.07 26.5508 163.336 26.8203C162.61 27.0898 161.742 27.2246 160.731 27.2246C159.87 27.2246 159.125 27.1572 158.496 27.0225C157.867 26.8877 157.317 26.6968 156.845 26.4497V24.7314C157.347 24.9785 157.946 25.2031 158.642 25.4053C159.338 25.6074 160.05 25.7085 160.776 25.7085C161.839 25.7085 162.61 25.5363 163.089 25.1919C163.569 24.8475 163.808 24.3796 163.808 23.7881C163.808 23.4512 163.711 23.1554 163.516 22.9009C163.329 22.6388 163.011 22.388 162.562 22.1484C162.112 21.9014 161.491 21.6318 160.697 21.3398C159.911 21.0404 159.23 20.7446 158.653 20.4526C158.084 20.1532 157.643 19.79 157.328 19.3633C157.021 18.9365 156.868 18.3825 156.868 17.7012C156.868 16.6605 157.287 15.8631 158.125 15.3091C158.972 14.7476 160.08 14.4668 161.45 14.4668C162.191 14.4668 162.883 14.5417 163.527 14.6914C164.179 14.8337 164.785 15.0283 165.347 15.2754L164.718 16.769C164.209 16.5519 163.666 16.3685 163.089 16.2188C162.513 16.069 161.925 15.9941 161.326 15.9941C160.465 15.9941 159.803 16.1364 159.338 16.4209C158.882 16.7054 158.653 17.0947 158.653 17.5889C158.653 17.9707 158.758 18.2852 158.968 18.5322C159.185 18.7793 159.529 19.0114 160.001 19.2285C160.473 19.4456 161.094 19.7002 161.865 19.9922C162.636 20.2767 163.303 20.5724 163.864 20.8794C164.426 21.1789 164.856 21.5457 165.156 21.98C165.463 22.4067 165.616 22.957 165.616 23.6309ZM170.468 9.52539V18.5996C170.468 18.8991 170.457 19.266 170.434 19.7002C170.412 20.127 170.393 20.505 170.378 20.8345H170.457C170.614 20.6398 170.842 20.3516 171.142 19.9697C171.449 19.5879 171.707 19.2809 171.917 19.0488L176.004 14.6914H178.194L173.242 19.9473L178.554 27H176.308L171.961 21.1714L170.468 22.5415V27H168.615V9.52539L170.468 9.52539Z" fill="white"/>
</svg>
