<svg width="160" height="36" viewBox="0 0 160 36" fill="none" xmlns="http://www.w3.org/2000/svg">
<rect width="160" height="36" rx="8" fill="#FF7A00"/>
<path d="M38.667 10.5811V21.2051C38.667 22.3656 38.4312 23.3988 37.9595 24.3047C37.4953 25.2106 36.7915 25.9256 35.8481 26.4497C34.9048 26.9663 33.7218 27.2246 32.2993 27.2246C30.2703 27.2246 28.7243 26.6743 27.6611 25.5737C26.6055 24.4731 26.0776 23.002 26.0776 21.1602L26.0776 10.5811H27.998L27.998 21.2163C27.998 22.6089 28.3649 23.6833 29.0986 24.4395C29.8398 25.1956 30.9442 25.5737 32.4116 25.5737C33.4149 25.5737 34.2347 25.394 34.8711 25.0347C35.515 24.6678 35.9904 24.1587 36.2974 23.5073C36.6118 22.8485 36.769 22.0885 36.769 21.2275V10.5811L38.667 10.5811ZM50.7061 23.6309C50.7061 24.417 50.5076 25.0796 50.1108 25.6187C49.7215 26.1502 49.16 26.5508 48.4263 26.8203C47.7 27.0898 46.8315 27.2246 45.8208 27.2246C44.9598 27.2246 44.2148 27.1572 43.5859 27.0225C42.957 26.8877 42.4067 26.6968 41.9351 26.4497V24.7314C42.4367 24.9785 43.0356 25.2031 43.7319 25.4053C44.4282 25.6074 45.1395 25.7085 45.8657 25.7085C46.9289 25.7085 47.7 25.5363 48.1792 25.1919C48.6584 24.8475 48.8979 24.3796 48.8979 23.7881C48.8979 23.4512 48.8006 23.1554 48.606 22.9009C48.4188 22.6388 48.1006 22.388 47.6514 22.1484C47.2021 21.9014 46.5807 21.6318 45.7871 21.3398C45.001 21.0404 44.3197 20.7446 43.7432 20.4526C43.1742 20.1532 42.7324 19.79 42.418 19.3633C42.111 18.9365 41.9575 18.3825 41.9575 17.7012C41.9575 16.6605 42.3768 15.8631 43.2153 15.3091C44.0614 14.7476 45.1694 14.4668 46.5396 14.4668C47.2808 14.4668 47.9733 14.5417 48.6172 14.6914C49.2686 14.8337 49.875 15.0283 50.4365 15.2754L49.8076 16.769C49.2985 16.5519 48.7557 16.3685 48.1792 16.2188C47.6027 16.069 47.015 15.9941 46.416 15.9941C45.555 15.9941 44.8924 16.1364 44.4282 16.4209C43.9715 16.7054 43.7432 17.0947 43.7432 17.5889C43.7432 17.9707 43.848 18.2852 44.0576 18.5322C44.2747 18.7793 44.6191 19.0114 45.0908 19.2285C45.5625 19.4456 46.1839 19.7002 46.9551 19.9922C47.7262 20.2767 48.3926 20.5724 48.9541 20.8794C49.5156 21.1789 49.9461 21.5457 50.2456 21.98C50.5526 22.4067 50.7061 22.957 50.7061 23.6309ZM58.4438 14.4668C59.492 14.4668 60.3905 14.6989 61.1392 15.1631C61.8879 15.6273 62.4606 16.2786 62.8574 17.1172C63.2542 17.9482 63.4526 18.9215 63.4526 20.0371V21.1938L54.9512 21.1938C54.9736 22.6388 55.333 23.7394 56.0293 24.4956C56.7256 25.2518 57.7064 25.6299 58.9717 25.6299C59.7503 25.6299 60.4391 25.5588 61.0381 25.4165C61.637 25.2743 62.2585 25.0646 62.9023 24.7876L62.9023 26.4272C62.2809 26.7043 61.6632 26.9064 61.0493 27.0337C60.4429 27.161 59.7241 27.2246 58.8931 27.2246C57.7101 27.2246 56.6769 26.985 55.7935 26.5059C54.9175 26.0192 54.2362 25.3079 53.7495 24.3721C53.2629 23.4362 53.0195 22.2907 53.0195 20.9355C53.0195 19.6104 53.2404 18.4648 53.6821 17.499C54.1313 16.5257 54.7603 15.777 55.5688 15.2529C56.3849 14.7288 57.3433 14.4668 58.4438 14.4668ZM58.4214 15.9941C57.4256 15.9941 56.632 16.3198 56.0405 16.9712C55.4491 17.6226 55.0972 18.5322 54.9849 19.7002H61.4985C61.491 18.9665 61.375 18.3226 61.1504 17.7686C60.9333 17.207 60.6001 16.7728 60.1509 16.4658C59.7017 16.1514 59.1252 15.9941 58.4214 15.9941ZM72.2124 14.4668C72.4595 14.4668 72.7178 14.4818 72.9873 14.5117C73.2568 14.5342 73.4964 14.5679 73.7061 14.6128L73.4702 16.3423C73.2681 16.2899 73.0435 16.2487 72.7964 16.2188C72.5493 16.1888 72.3172 16.1738 72.1001 16.1738C71.606 16.1738 71.138 16.2749 70.6963 16.4771C70.262 16.6717 69.8802 16.9562 69.5508 17.3306C69.2214 17.6974 68.9631 18.1429 68.7759 18.667C68.5887 19.1836 68.4951 19.7601 68.4951 20.3965V27H66.6196V14.6914H68.1694L68.3716 16.96H68.4502C68.7048 16.5033 69.0117 16.0877 69.3711 15.7134C69.7305 15.3315 70.146 15.0283 70.6177 14.8037C71.0968 14.5791 71.6284 14.4668 72.2124 14.4668ZM91.5513 22.6313C91.5513 23.6047 91.3079 24.4357 90.8213 25.1245C90.3421 25.8058 89.6683 26.3262 88.7998 26.6855C87.9313 27.0449 86.9093 27.2246 85.7339 27.2246C85.1125 27.2246 84.5247 27.1947 83.9707 27.1348C83.4167 27.0749 82.9076 26.9888 82.4434 26.8765C81.9792 26.7642 81.5711 26.6257 81.2192 26.4609V24.6304C81.7808 24.8625 82.4658 25.0796 83.2744 25.2817C84.083 25.4764 84.929 25.5737 85.8125 25.5737C86.6361 25.5737 87.3324 25.4652 87.9014 25.248C88.4704 25.0234 88.9009 24.7052 89.1929 24.2935C89.4924 23.8742 89.6421 23.3726 89.6421 22.7886C89.6421 22.2271 89.5186 21.7591 89.2715 21.3848C89.0244 21.0029 88.6126 20.6585 88.0361 20.3516C87.4671 20.0371 86.6885 19.7039 85.7002 19.3521C85.0039 19.105 84.39 18.8354 83.8584 18.5435C83.3268 18.244 82.8813 17.9071 82.522 17.5327C82.1626 17.1584 81.8893 16.7241 81.7021 16.23C81.5225 15.7358 81.4326 15.1706 81.4326 14.5342C81.4326 13.6582 81.6535 12.9095 82.0952 12.2881C82.5444 11.6592 83.1621 11.18 83.9482 10.8506C84.7419 10.5137 85.6515 10.3452 86.6772 10.3452C87.5532 10.3452 88.3618 10.4276 89.103 10.5923C89.8517 10.757 90.5368 10.9779 91.1582 11.2549L90.563 12.8945C89.9715 12.6475 89.3426 12.4416 88.6763 12.2769C88.0174 12.1121 87.3361 12.0298 86.6323 12.0298C85.9285 12.0298 85.3333 12.1346 84.8467 12.3442C84.3675 12.5464 84.0007 12.8346 83.7461 13.209C83.4915 13.5833 83.3643 14.0288 83.3643 14.5454C83.3643 15.1219 83.484 15.6011 83.7236 15.9829C83.9707 16.3647 84.36 16.7054 84.8916 17.0049C85.4307 17.2969 86.1419 17.6038 87.0254 17.9258C87.9912 18.2777 88.811 18.652 89.4849 19.0488C90.1587 19.4382 90.6715 19.9173 91.0234 20.4863C91.3753 21.0479 91.5513 21.7629 91.5513 22.6313ZM98.604 25.6973C98.911 25.6973 99.2254 25.6711 99.5474 25.6187C99.8693 25.5662 100.131 25.5026 100.333 25.4277V26.8765C100.116 26.9738 99.8132 27.0562 99.4238 27.1235C99.042 27.1909 98.6676 27.2246 98.3008 27.2246C97.6494 27.2246 97.0579 27.1123 96.5264 26.8877C95.9948 26.6556 95.568 26.2663 95.2461 25.7197C94.9316 25.1732 94.7744 24.417 94.7744 23.4512V16.1514H93.0225V15.2417L94.7856 14.5117L95.5269 11.8389H96.6499V14.6914H100.255V16.1514H96.6499V23.395C96.6499 24.1662 96.8258 24.7427 97.1777 25.1245C97.5371 25.5063 98.0125 25.6973 98.604 25.6973ZM113.439 20.8232C113.439 21.834 113.308 22.7362 113.046 23.5298C112.784 24.3234 112.406 24.9935 111.912 25.54C111.418 26.0866 110.819 26.5059 110.115 26.7979C109.419 27.0824 108.629 27.2246 107.746 27.2246C106.922 27.2246 106.166 27.0824 105.477 26.7979C104.796 26.5059 104.204 26.0866 103.703 25.54C103.208 24.9935 102.823 24.3234 102.546 23.5298C102.276 22.7362 102.142 21.834 102.142 20.8232C102.142 19.4756 102.37 18.3301 102.827 17.3867C103.283 16.4359 103.935 15.7134 104.781 15.2192C105.634 14.7176 106.649 14.4668 107.824 14.4668C108.947 14.4668 109.928 14.7176 110.767 15.2192C111.613 15.7209 112.268 16.4471 112.732 17.3979C113.204 18.3413 113.439 19.4831 113.439 20.8232ZM104.073 20.8232C104.073 21.8115 104.204 22.6688 104.466 23.395C104.728 24.1213 105.133 24.6828 105.679 25.0796C106.226 25.4764 106.93 25.6748 107.791 25.6748C108.644 25.6748 109.344 25.4764 109.891 25.0796C110.445 24.6828 110.853 24.1213 111.115 23.395C111.377 22.6688 111.508 21.8115 111.508 20.8232C111.508 19.8424 111.377 18.9964 111.115 18.2852C110.853 17.5664 110.448 17.0124 109.902 16.623C109.355 16.2337 108.648 16.0391 107.779 16.0391C106.499 16.0391 105.559 16.4621 104.96 17.3081C104.369 18.1541 104.073 19.3258 104.073 20.8232ZM122.255 14.4668C122.502 14.4668 122.761 14.4818 123.03 14.5117C123.3 14.5342 123.539 14.5679 123.749 14.6128L123.513 16.3423C123.311 16.2899 123.086 16.2487 122.839 16.2188C122.592 16.1888 122.36 16.1738 122.143 16.1738C121.649 16.1738 121.181 16.2749 120.739 16.4771C120.305 16.6717 119.923 16.9562 119.594 17.3306C119.264 17.6974 119.006 18.1429 118.819 18.667C118.632 19.1836 118.538 19.7601 118.538 20.3965V27H116.663V14.6914L118.212 14.6914L118.415 16.96H118.493C118.748 16.5033 119.055 16.0877 119.414 15.7134C119.773 15.3315 120.189 15.0283 120.661 14.8037C121.14 14.5791 121.671 14.4668 122.255 14.4668ZM124.131 14.6914H126.13L128.848 21.834C129.005 22.2533 129.151 22.6576 129.286 23.0469C129.42 23.4287 129.54 23.7956 129.645 24.1475C129.75 24.4993 129.832 24.84 129.892 25.1694H129.971C130.076 24.7951 130.225 24.3047 130.42 23.6982C130.615 23.0843 130.824 22.4591 131.049 21.8228L133.621 14.6914H135.631L130.274 28.8081C129.989 29.5643 129.656 30.2231 129.274 30.7847C128.9 31.3462 128.443 31.7767 127.904 32.0762C127.365 32.3831 126.714 32.5366 125.95 32.5366C125.598 32.5366 125.288 32.5142 125.018 32.4692C124.749 32.4318 124.516 32.3869 124.322 32.3345V30.8408C124.486 30.8783 124.685 30.9119 124.917 30.9419C125.157 30.9718 125.404 30.9868 125.658 30.9868C126.122 30.9868 126.523 30.897 126.86 30.7173C127.204 30.5451 127.5 30.2905 127.747 29.9536C127.994 29.6167 128.208 29.2161 128.387 28.752L129.061 27.0225L124.131 14.6914Z" fill="white"/>
</svg>
