<svg width="33" height="32" viewBox="0 0 33 32" fill="none" xmlns="http://www.w3.org/2000/svg">
<g clip-path="url(#clip0_19509_11838)">
<path d="M16.2215 17.2452C16.0221 17.2456 15.8278 17.1837 15.6673 17.0686L8.09877 11.6347C8.0003 11.5639 7.91712 11.475 7.854 11.373C7.79087 11.2709 7.74904 11.1578 7.73087 11.0401C7.69419 10.8023 7.75616 10.5601 7.90315 10.3667C8.05015 10.1734 8.27013 10.0447 8.51469 10.0091C8.75926 9.97339 9.00839 10.0336 9.20726 10.1766L16.2215 15.2075L23.2358 10.1766C23.3342 10.1058 23.4461 10.0546 23.5649 10.0258C23.6837 9.9971 23.8072 9.9914 23.9283 10.0091C24.0494 10.0267 24.1658 10.0674 24.2707 10.1288C24.3756 10.1901 24.4671 10.271 24.5399 10.3667C24.6126 10.4625 24.6653 10.5712 24.6949 10.6868C24.7244 10.8023 24.7303 10.9224 24.7121 11.0401C24.694 11.1578 24.6521 11.2709 24.589 11.373C24.5259 11.475 24.4427 11.5639 24.3442 11.6347L16.7758 17.0686C16.6152 17.1837 16.4209 17.2456 16.2215 17.2452Z" fill="#7AE229"/>
<path d="M16.2217 22.0001C16.0222 22.0005 15.828 21.9386 15.6674 21.8235L8.09894 16.3896C7.90006 16.2466 7.76772 16.0328 7.73104 15.795C7.69435 15.5572 7.75633 15.315 7.90332 15.1216C8.05032 14.9283 8.27029 14.7996 8.51486 14.7639C8.75943 14.7283 9.00855 14.7885 9.20743 14.9314L16.2217 19.9624L23.2359 14.9314C23.4348 14.7885 23.6839 14.7283 23.9285 14.7639C24.1731 14.7996 24.393 14.9283 24.54 15.1216C24.687 15.315 24.749 15.5572 24.7123 15.795C24.6756 16.0328 24.5433 16.2466 24.3444 16.3896L16.7759 21.8235C16.6154 21.9386 16.4211 22.0005 16.2217 22.0001Z" fill="#7AE229"/>
</g>
<defs>
<clipPath id="clip0_19509_11838">
<rect width="17" height="12" fill="white" transform="translate(7.72168 10)"/>
</clipPath>
</defs>
</svg>
