<svg width="140" height="27" viewBox="0 0 140 27" fill="none" xmlns="http://www.w3.org/2000/svg">
<rect width="140" height="27" rx="8" fill="#0038FF"/>
<path d="M21.0703 20H19.7344L19.7344 9.75H16.1406V8.57812L24.6484 8.57813V9.75L21.0703 9.75L21.0703 20ZM29.4766 11.2813C30.2057 11.2813 30.8307 11.4427 31.3516 11.7656C31.8724 12.0885 32.2708 12.5417 32.5469 13.125C32.8229 13.7031 32.9609 14.3802 32.9609 15.1563V15.9609L27.0469 15.9609C27.0625 16.9661 27.3125 17.7318 27.7969 18.2578C28.2812 18.7839 28.9635 19.0469 29.8438 19.0469C30.3854 19.0469 30.8646 18.9974 31.2812 18.8984C31.6979 18.7995 32.1302 18.6536 32.5781 18.4609V19.6016C32.1458 19.7943 31.7161 19.9349 31.2891 20.0234C30.8672 20.112 30.3672 20.1563 29.7891 20.1563C28.9661 20.1563 28.2474 19.9896 27.6328 19.6562C27.0234 19.3177 26.5495 18.8229 26.2109 18.1719C25.8724 17.5208 25.7031 16.724 25.7031 15.7813C25.7031 14.8594 25.8568 14.0625 26.1641 13.3906C26.4766 12.7135 26.9141 12.1927 27.4766 11.8281C28.0443 11.4635 28.7109 11.2813 29.4766 11.2813ZM29.4609 12.3438C28.7682 12.3438 28.2161 12.5703 27.8047 13.0234C27.3932 13.4766 27.1484 14.1094 27.0703 14.9219H31.6016C31.5964 14.4115 31.5156 13.9635 31.3594 13.5781C31.2083 13.1875 30.9766 12.8854 30.6641 12.6719C30.3516 12.4531 29.9505 12.3438 29.4609 12.3438ZM38.5938 20.1563C37.8229 20.1563 37.1432 19.9974 36.5547 19.6797C35.9661 19.362 35.5078 18.8776 35.1797 18.2266C34.8516 17.5755 34.6875 16.7552 34.6875 15.7656C34.6875 14.7292 34.8594 13.8828 35.2031 13.2266C35.5521 12.5651 36.0312 12.0755 36.6406 11.7578C37.25 11.4401 37.9427 11.2813 38.7188 11.2813C39.1458 11.2813 39.5573 11.3255 39.9531 11.4141C40.3542 11.4974 40.6823 11.6042 40.9375 11.7344L40.5469 12.8203C40.2865 12.7161 39.9844 12.6224 39.6406 12.5391C39.3021 12.4557 38.9844 12.4141 38.6875 12.4141C38.0938 12.4141 37.599 12.5417 37.2031 12.7969C36.8125 13.0521 36.5182 13.4271 36.3203 13.9219C36.1276 14.4167 36.0312 15.026 36.0312 15.75C36.0312 16.4427 36.125 17.0339 36.3125 17.5234C36.5052 18.013 36.7891 18.388 37.1641 18.6484C37.5443 18.9036 38.0182 19.0313 38.5859 19.0313C39.0391 19.0313 39.4479 18.9844 39.8125 18.8906C40.1771 18.7917 40.5078 18.6771 40.8047 18.5469V19.7031C40.5182 19.849 40.1979 19.9609 39.8438 20.0391C39.4948 20.1172 39.0781 20.1563 38.5938 20.1563ZM44.1328 7.84375V11.4766C44.1328 11.6849 44.1276 11.8958 44.1172 12.1094C44.1068 12.3177 44.0885 12.5104 44.0625 12.6875H44.1484C44.3255 12.3854 44.5495 12.1328 44.8203 11.9297C45.0964 11.7214 45.4089 11.5651 45.7578 11.4609C46.1068 11.3516 46.4766 11.2969 46.8672 11.2969C47.5547 11.2969 48.1276 11.4063 48.5859 11.625C49.0495 11.8438 49.3958 12.1823 49.625 12.6406C49.8594 13.099 49.9766 13.6927 49.9766 14.4219V20L48.6953 20V14.5078C48.6953 13.7943 48.5312 13.2604 48.2031 12.9063C47.8802 12.5521 47.3828 12.375 46.7109 12.375C46.0755 12.375 45.5677 12.4974 45.1875 12.7422C44.8125 12.9818 44.5417 13.3359 44.375 13.8047C44.2135 14.2734 44.1328 14.8464 44.1328 15.5234V20H42.8359V7.84375H44.1328ZM56.7031 11.2813C57.7188 11.2813 58.487 11.5313 59.0078 12.0313C59.5286 12.526 59.7891 13.3229 59.7891 14.4219V20H58.5078V14.5078C58.5078 13.7943 58.3438 13.2604 58.0156 12.9063C57.6927 12.5521 57.1953 12.375 56.5234 12.375C55.5755 12.375 54.9089 12.6432 54.5234 13.1797C54.138 13.7161 53.9453 14.4948 53.9453 15.5156V20H52.6484V11.4375H53.6953L53.8906 12.6719H53.9609C54.1432 12.3698 54.375 12.1172 54.6562 11.9141C54.9375 11.7057 55.2526 11.5495 55.6016 11.4453C55.9505 11.3359 56.3177 11.2813 56.7031 11.2813ZM63.7578 11.4375V20H62.4609V11.4375H63.7578ZM63.125 8.23438C63.3385 8.23438 63.5208 8.30469 63.6719 8.44531C63.8281 8.58073 63.9062 8.79427 63.9062 9.08594C63.9062 9.3724 63.8281 9.58594 63.6719 9.72656C63.5208 9.86719 63.3385 9.9375 63.125 9.9375C62.901 9.9375 62.7135 9.86719 62.5625 9.72656C62.4167 9.58594 62.3438 9.3724 62.3438 9.08594C62.3438 8.79427 62.4167 8.58073 62.5625 8.44531C62.7135 8.30469 62.901 8.23438 63.125 8.23438ZM69.9375 20.1563C69.1667 20.1563 68.487 19.9974 67.8984 19.6797C67.3099 19.362 66.8516 18.8776 66.5234 18.2266C66.1953 17.5755 66.0312 16.7552 66.0312 15.7656C66.0312 14.7292 66.2031 13.8828 66.5469 13.2266C66.8958 12.5651 67.375 12.0755 67.9844 11.7578C68.5938 11.4401 69.2865 11.2813 70.0625 11.2813C70.4896 11.2813 70.901 11.3255 71.2969 11.4141C71.6979 11.4974 72.026 11.6042 72.2812 11.7344L71.8906 12.8203C71.6302 12.7161 71.3281 12.6224 70.9844 12.5391C70.6458 12.4557 70.3281 12.4141 70.0312 12.4141C69.4375 12.4141 68.9427 12.5417 68.5469 12.7969C68.1562 13.0521 67.862 13.4271 67.6641 13.9219C67.4714 14.4167 67.375 15.026 67.375 15.75C67.375 16.4427 67.4688 17.0339 67.6562 17.5234C67.849 18.013 68.1328 18.388 68.5078 18.6484C68.888 18.9036 69.362 19.0313 69.9297 19.0313C70.3828 19.0313 70.7917 18.9844 71.1562 18.8906C71.5208 18.7917 71.8516 18.6771 72.1484 18.5469V19.7031C71.862 19.849 71.5417 19.9609 71.1875 20.0391C70.8385 20.1172 70.4219 20.1563 69.9375 20.1563ZM77.3828 11.2969C78.4036 11.2969 79.1615 11.526 79.6562 11.9844C80.151 12.4427 80.3984 13.1745 80.3984 14.1797V20H79.4531L79.2031 18.7344H79.1406C78.901 19.0469 78.651 19.3099 78.3906 19.5234C78.1302 19.7318 77.8281 19.8906 77.4844 20C77.1458 20.1042 76.7292 20.1563 76.2344 20.1563C75.7135 20.1563 75.25 20.0651 74.8438 19.8828C74.4427 19.7005 74.125 19.4245 73.8906 19.0547C73.6615 18.6849 73.5469 18.2161 73.5469 17.6484C73.5469 16.7943 73.8854 16.138 74.5625 15.6797C75.2396 15.2214 76.2708 14.9714 77.6562 14.9297L79.1328 14.8672V14.3438C79.1328 13.6042 78.974 13.0859 78.6562 12.7891C78.3385 12.4922 77.8906 12.3438 77.3125 12.3438C76.8646 12.3438 76.4375 12.4089 76.0312 12.5391C75.625 12.6693 75.2396 12.8229 74.875 13L74.4766 12.0156C74.862 11.8177 75.3047 11.6484 75.8047 11.5078C76.3047 11.3672 76.8307 11.2969 77.3828 11.2969ZM79.1172 15.7813L77.8125 15.8359C76.7448 15.8776 75.9922 16.0521 75.5547 16.3594C75.1172 16.6667 74.8984 17.1016 74.8984 17.6641C74.8984 18.1536 75.0469 18.5156 75.3438 18.75C75.6406 18.9844 76.0339 19.1016 76.5234 19.1016C77.2839 19.1016 77.9062 18.8906 78.3906 18.4688C78.875 18.0469 79.1172 17.4141 79.1172 16.5703V15.7813ZM84.375 20H83.0703V7.84375H84.375V20ZM94.9766 20H93.6406V9.75L90.0469 9.75V8.57813L98.5547 8.57813V9.75L94.9766 9.75V20ZM103.289 11.2969C104.31 11.2969 105.068 11.526 105.562 11.9844C106.057 12.4427 106.305 13.1745 106.305 14.1797V20H105.359L105.109 18.7344H105.047C104.807 19.0469 104.557 19.3099 104.297 19.5234C104.036 19.7318 103.734 19.8906 103.391 20C103.052 20.1042 102.635 20.1563 102.141 20.1563C101.62 20.1563 101.156 20.0651 100.75 19.8828C100.349 19.7005 100.031 19.4245 99.7969 19.0547C99.5677 18.6849 99.4531 18.2161 99.4531 17.6484C99.4531 16.7943 99.7917 16.138 100.469 15.6797C101.146 15.2214 102.177 14.9714 103.562 14.9297L105.039 14.8672V14.3438C105.039 13.6042 104.88 13.0859 104.562 12.7891C104.245 12.4922 103.797 12.3438 103.219 12.3438C102.771 12.3438 102.344 12.4089 101.938 12.5391C101.531 12.6693 101.146 12.8229 100.781 13L100.383 12.0156C100.768 11.8177 101.211 11.6484 101.711 11.5078C102.211 11.3672 102.737 11.2969 103.289 11.2969ZM105.023 15.7813L103.719 15.8359C102.651 15.8776 101.898 16.0521 101.461 16.3594C101.023 16.6667 100.805 17.1016 100.805 17.6641C100.805 18.1536 100.953 18.5156 101.25 18.75C101.547 18.9844 101.94 19.1016 102.43 19.1016C103.19 19.1016 103.812 18.8906 104.297 18.4688C104.781 18.0469 105.023 17.4141 105.023 16.5703V15.7813ZM114.516 17.6563C114.516 18.2031 114.378 18.6641 114.102 19.0391C113.831 19.4089 113.44 19.6875 112.93 19.875C112.424 20.0625 111.82 20.1563 111.117 20.1563C110.518 20.1563 110 20.1094 109.562 20.0156C109.125 19.9219 108.742 19.7891 108.414 19.6172V18.4219C108.763 18.5938 109.18 18.75 109.664 18.8906C110.148 19.0313 110.643 19.1016 111.148 19.1016C111.888 19.1016 112.424 18.9818 112.758 18.7422C113.091 18.5026 113.258 18.1771 113.258 17.7656C113.258 17.5313 113.19 17.3255 113.055 17.1484C112.924 16.9661 112.703 16.7917 112.391 16.625C112.078 16.4531 111.646 16.2656 111.094 16.0625C110.547 15.8542 110.073 15.6484 109.672 15.4453C109.276 15.237 108.969 14.9844 108.75 14.6875C108.536 14.3906 108.43 14.0052 108.43 13.5313C108.43 12.8073 108.721 12.2526 109.305 11.8672C109.893 11.4766 110.664 11.2813 111.617 11.2813C112.133 11.2813 112.615 11.3333 113.062 11.4375C113.516 11.5365 113.938 11.6719 114.328 11.8438L113.891 12.8828C113.536 12.7318 113.159 12.6042 112.758 12.5C112.357 12.3958 111.948 12.3438 111.531 12.3438C110.932 12.3438 110.471 12.4427 110.148 12.6406C109.831 12.8385 109.672 13.1094 109.672 13.4531C109.672 13.7188 109.745 13.9375 109.891 14.1094C110.042 14.2813 110.281 14.4427 110.609 14.5938C110.938 14.7448 111.37 14.9219 111.906 15.125C112.443 15.3229 112.906 15.5286 113.297 15.7422C113.688 15.9505 113.987 16.2057 114.195 16.5078C114.409 16.8047 114.516 17.1875 114.516 17.6563ZM117.891 7.84375V14.1563C117.891 14.3646 117.883 14.6198 117.867 14.9219C117.852 15.2188 117.839 15.4818 117.828 15.7109H117.883C117.992 15.5755 118.151 15.375 118.359 15.1094C118.573 14.8438 118.753 14.6302 118.898 14.4688L121.742 11.4375H123.266L119.82 15.0938L123.516 20H121.953L118.93 15.9453L117.891 16.8984V20H116.602V7.84375H117.891Z" fill="white"/>
</svg>
