<svg width="110" height="27" viewBox="0 0 110 27" fill="none" xmlns="http://www.w3.org/2000/svg">
<rect width="110" height="27" rx="8" fill="#FF7A00"/>
<path d="M26.2031 8.57813V15.9688C26.2031 16.776 26.0391 17.4948 25.7109 18.125C25.388 18.7552 24.8984 19.2526 24.2422 19.6172C23.5859 19.9766 22.763 20.1562 21.7734 20.1562C20.362 20.1562 19.2865 19.7734 18.5469 19.0078C17.8125 18.2422 17.4453 17.2188 17.4453 15.9375L17.4453 8.57812H18.7812V15.9766C18.7812 16.9453 19.0365 17.6927 19.5469 18.2188C20.0625 18.7448 20.8307 19.0078 21.8516 19.0078C22.5495 19.0078 23.1198 18.8828 23.5625 18.6328C24.0104 18.3776 24.3411 18.0234 24.5547 17.5703C24.7734 17.112 24.8828 16.5833 24.8828 15.9844V8.57813H26.2031ZM34.5781 17.6563C34.5781 18.2031 34.4401 18.6641 34.1641 19.0391C33.8932 19.4089 33.5026 19.6875 32.9922 19.875C32.487 20.0625 31.8828 20.1563 31.1797 20.1563C30.5807 20.1563 30.0625 20.1094 29.625 20.0156C29.1875 19.9219 28.8047 19.7891 28.4766 19.6172V18.4219C28.8255 18.5938 29.2422 18.75 29.7266 18.8906C30.2109 19.0312 30.7057 19.1016 31.2109 19.1016C31.9505 19.1016 32.487 18.9818 32.8203 18.7422C33.1536 18.5026 33.3203 18.1771 33.3203 17.7656C33.3203 17.5313 33.2526 17.3255 33.1172 17.1484C32.987 16.9661 32.7656 16.7917 32.4531 16.625C32.1406 16.4531 31.7083 16.2656 31.1562 16.0625C30.6094 15.8542 30.1354 15.6484 29.7344 15.4453C29.3385 15.237 29.0312 14.9844 28.8125 14.6875C28.599 14.3906 28.4922 14.0052 28.4922 13.5313C28.4922 12.8073 28.7839 12.2526 29.3672 11.8672C29.9557 11.4766 30.7266 11.2813 31.6797 11.2813C32.1953 11.2813 32.6771 11.3333 33.125 11.4375C33.5781 11.5365 34 11.6719 34.3906 11.8438L33.9531 12.8828C33.599 12.7318 33.2214 12.6042 32.8203 12.5C32.4193 12.3958 32.0104 12.3438 31.5938 12.3438C30.9948 12.3438 30.5339 12.4427 30.2109 12.6406C29.8932 12.8385 29.7344 13.1094 29.7344 13.4531C29.7344 13.7188 29.8073 13.9375 29.9531 14.1094C30.1042 14.2813 30.3438 14.4427 30.6719 14.5938C31 14.7448 31.4323 14.9219 31.9688 15.125C32.5052 15.3229 32.9688 15.5286 33.3594 15.7422C33.75 15.9505 34.0495 16.2057 34.2578 16.5078C34.4714 16.8047 34.5781 17.1875 34.5781 17.6563ZM39.9609 11.2813C40.6901 11.2813 41.3151 11.4427 41.8359 11.7656C42.3568 12.0885 42.7552 12.5417 43.0312 13.125C43.3073 13.7031 43.4453 14.3802 43.4453 15.1563V15.9609H37.5312C37.5469 16.9661 37.7969 17.7318 38.2812 18.2578C38.7656 18.7839 39.4479 19.0469 40.3281 19.0469C40.8698 19.0469 41.349 18.9974 41.7656 18.8984C42.1823 18.7995 42.6146 18.6536 43.0625 18.4609V19.6016C42.6302 19.7943 42.2005 19.9349 41.7734 20.0234C41.3516 20.112 40.8516 20.1563 40.2734 20.1563C39.4505 20.1563 38.7318 19.9896 38.1172 19.6563C37.5078 19.3177 37.0339 18.8229 36.6953 18.1719C36.3568 17.5208 36.1875 16.724 36.1875 15.7813C36.1875 14.8594 36.3411 14.0625 36.6484 13.3906C36.9609 12.7135 37.3984 12.1927 37.9609 11.8281C38.5286 11.4635 39.1953 11.2813 39.9609 11.2813ZM39.9453 12.3438C39.2526 12.3438 38.7005 12.5703 38.2891 13.0234C37.8776 13.4766 37.6328 14.1094 37.5547 14.9219H42.0859C42.0807 14.4115 42 13.9635 41.8438 13.5781C41.6927 13.1875 41.4609 12.8854 41.1484 12.6719C40.8359 12.4531 40.4349 12.3438 39.9453 12.3438ZM49.5391 11.2813C49.7109 11.2813 49.8906 11.2917 50.0781 11.3125C50.2656 11.3281 50.4323 11.3516 50.5781 11.3828L50.4141 12.5859C50.2734 12.5495 50.1172 12.5208 49.9453 12.5C49.7734 12.4792 49.612 12.4688 49.4609 12.4688C49.1172 12.4688 48.7917 12.5391 48.4844 12.6797C48.1823 12.8151 47.9167 13.013 47.6875 13.2734C47.4583 13.5286 47.2786 13.8385 47.1484 14.2031C47.0182 14.5625 46.9531 14.9635 46.9531 15.4063V20H45.6484V11.4375L46.7266 11.4375L46.8672 13.0156H46.9219C47.099 12.6979 47.3125 12.4089 47.5625 12.1484C47.8125 11.8828 48.1016 11.6719 48.4297 11.5156C48.763 11.3594 49.1328 11.2813 49.5391 11.2813ZM62.9922 16.9609C62.9922 17.638 62.8229 18.2161 62.4844 18.6953C62.151 19.1693 61.6823 19.5313 61.0781 19.7813C60.474 20.0313 59.763 20.1563 58.9453 20.1563C58.513 20.1563 58.1042 20.1354 57.7188 20.0938C57.3333 20.0521 56.9792 19.9922 56.6562 19.9141C56.3333 19.8359 56.0495 19.7396 55.8047 19.625V18.3516C56.1953 18.513 56.6719 18.6641 57.2344 18.8047C57.7969 18.9401 58.3854 19.0078 59 19.0078C59.5729 19.0078 60.0573 18.9323 60.4531 18.7813C60.849 18.625 61.1484 18.4036 61.3516 18.1172C61.5599 17.8255 61.6641 17.4766 61.6641 17.0703C61.6641 16.6797 61.5781 16.3542 61.4062 16.0938C61.2344 15.8281 60.9479 15.5885 60.5469 15.375C60.151 15.1563 59.6094 14.9245 58.9219 14.6797C58.4375 14.5078 58.0104 14.3203 57.6406 14.1172C57.2708 13.9089 56.9609 13.6745 56.7109 13.4141C56.4609 13.1536 56.2708 12.8516 56.1406 12.5078C56.0156 12.1641 55.9531 11.7708 55.9531 11.3281C55.9531 10.7188 56.1068 10.1979 56.4141 9.76563C56.7266 9.32813 57.1562 8.99479 57.7031 8.76563C58.2552 8.53125 58.888 8.41406 59.6016 8.41406C60.2109 8.41406 60.7734 8.47135 61.2891 8.58594C61.8099 8.70052 62.2865 8.85417 62.7188 9.04688L62.3047 10.1875C61.8932 10.0156 61.4557 9.8724 60.9922 9.75781C60.5339 9.64323 60.0599 9.58594 59.5703 9.58594C59.0807 9.58594 58.6667 9.65885 58.3281 9.80469C57.9948 9.94531 57.7396 10.1458 57.5625 10.4063C57.3854 10.6667 57.2969 10.9766 57.2969 11.3359C57.2969 11.737 57.3802 12.0703 57.5469 12.3359C57.7188 12.6016 57.9896 12.8385 58.3594 13.0469C58.7344 13.25 59.2292 13.4635 59.8438 13.6875C60.5156 13.9323 61.0859 14.1927 61.5547 14.4688C62.0234 14.7396 62.3802 15.0729 62.625 15.4688C62.8698 15.8594 62.9922 16.3568 62.9922 16.9609ZM67.8984 19.0938C68.112 19.0938 68.3307 19.0755 68.5547 19.0391C68.7786 19.0026 68.9609 18.9583 69.1016 18.9063V19.9141C68.9505 19.9818 68.7396 20.0391 68.4688 20.0859C68.2031 20.1328 67.9427 20.1563 67.6875 20.1563C67.2344 20.1563 66.8229 20.0781 66.4531 19.9219C66.0833 19.7604 65.7865 19.4896 65.5625 19.1094C65.3438 18.7292 65.2344 18.2031 65.2344 17.5313V12.4531H64.0156V11.8203L65.2422 11.3125L65.7578 9.45313H66.5391V11.4375L69.0469 11.4375V12.4531H66.5391V17.4922C66.5391 18.0286 66.6615 18.4297 66.9062 18.6953C67.1562 18.9609 67.487 19.0938 67.8984 19.0938ZM78.2188 15.7031C78.2188 16.4063 78.1276 17.0339 77.9453 17.5859C77.763 18.138 77.5 18.6042 77.1562 18.9844C76.8125 19.3646 76.3958 19.6563 75.9062 19.8594C75.4219 20.0573 74.8724 20.1563 74.2578 20.1563C73.6849 20.1563 73.1589 20.0573 72.6797 19.8594C72.2057 19.6563 71.7943 19.3646 71.4453 18.9844C71.1016 18.6042 70.8333 18.138 70.6406 17.5859C70.4531 17.0339 70.3594 16.4063 70.3594 15.7031C70.3594 14.7656 70.5182 13.9688 70.8359 13.3125C71.1536 12.651 71.6068 12.1484 72.1953 11.8047C72.7891 11.4557 73.4948 11.2813 74.3125 11.2813C75.0938 11.2813 75.776 11.4557 76.3594 11.8047C76.9479 12.1536 77.4036 12.6589 77.7266 13.3203C78.0547 13.9766 78.2188 14.7708 78.2188 15.7031ZM71.7031 15.7031C71.7031 16.3906 71.7943 16.987 71.9766 17.4922C72.1589 17.9974 72.4401 18.388 72.8203 18.6641C73.2005 18.9401 73.6901 19.0781 74.2891 19.0781C74.8828 19.0781 75.3698 18.9401 75.75 18.6641C76.1354 18.388 76.4193 17.9974 76.6016 17.4922C76.7839 16.987 76.875 16.3906 76.875 15.7031C76.875 15.0208 76.7839 14.4323 76.6016 13.9375C76.4193 13.4375 76.138 13.0521 75.7578 12.7813C75.3776 12.5104 74.8854 12.375 74.2812 12.375C73.3906 12.375 72.737 12.6693 72.3203 13.2578C71.9089 13.8464 71.7031 14.6615 71.7031 15.7031ZM84.3516 11.2813C84.5234 11.2813 84.7031 11.2917 84.8906 11.3125C85.0781 11.3281 85.2448 11.3516 85.3906 11.3828L85.2266 12.5859C85.0859 12.5495 84.9297 12.5208 84.7578 12.5C84.5859 12.4792 84.4245 12.4688 84.2734 12.4688C83.9297 12.4688 83.6042 12.5391 83.2969 12.6797C82.9948 12.8151 82.7292 13.013 82.5 13.2734C82.2708 13.5286 82.0911 13.8385 81.9609 14.2031C81.8307 14.5625 81.7656 14.9635 81.7656 15.4063V20H80.4609V11.4375H81.5391L81.6797 13.0156H81.7344C81.9115 12.6979 82.125 12.4089 82.375 12.1484C82.625 11.8828 82.9141 11.6719 83.2422 11.5156C83.5755 11.3594 83.9453 11.2813 84.3516 11.2813ZM85.6562 11.4375H87.0469L88.9375 16.4063C89.0469 16.6979 89.1484 16.9792 89.2422 17.25C89.3359 17.5156 89.4193 17.7708 89.4922 18.0156C89.5651 18.2604 89.6224 18.4974 89.6641 18.7266H89.7188C89.7917 18.4661 89.8958 18.125 90.0312 17.7031C90.1667 17.276 90.3125 16.8411 90.4688 16.3984L92.2578 11.4375H93.6562L89.9297 21.2578C89.7318 21.7839 89.5 22.2422 89.2344 22.6328C88.974 23.0234 88.6562 23.3229 88.2812 23.5313C87.9062 23.7448 87.4531 23.8516 86.9219 23.8516C86.6771 23.8516 86.4609 23.8359 86.2734 23.8047C86.0859 23.7786 85.9245 23.7474 85.7891 23.7109V22.6719C85.9036 22.6979 86.0417 22.7214 86.2031 22.7422C86.3698 22.763 86.5417 22.7734 86.7188 22.7734C87.0417 22.7734 87.3203 22.7109 87.5547 22.5859C87.7943 22.4661 88 22.2891 88.1719 22.0547C88.3438 21.8203 88.4922 21.5417 88.6172 21.2188L89.0859 20.0156L85.6562 11.4375Z" fill="white"/>
</svg>
