<svg width="19" height="19" viewBox="0 0 19 19" fill="none" xmlns="http://www.w3.org/2000/svg">
<path d="M17.4495 18.5C15.3662 18.5 13.3078 18.0458 11.2745 17.1375C9.24118 16.2292 7.39118 14.9417 5.72451 13.275C4.05785 11.6083 2.77035 9.75833 1.86201 7.725C0.953678 5.69167 0.499512 3.63333 0.499512 1.55C0.499512 1.25 0.599512 1 0.799512 0.8C0.999512 0.6 1.24951 0.5 1.54951 0.5H5.59951C5.83284 0.5 6.04118 0.579167 6.22451 0.7375C6.40785 0.895833 6.51618 1.08333 6.54951 1.3L7.19951 4.8C7.23285 5.06667 7.22451 5.29167 7.17451 5.475C7.12451 5.65833 7.03285 5.81667 6.89951 5.95L4.47451 8.4C4.80785 9.01667 5.20368 9.6125 5.66201 10.1875C6.12035 10.7625 6.62451 11.3167 7.17451 11.85C7.69118 12.3667 8.23285 12.8458 8.79951 13.2875C9.36618 13.7292 9.96618 14.1333 10.5995 14.5L12.9495 12.15C13.0995 12 13.2953 11.8875 13.537 11.8125C13.7787 11.7375 14.0162 11.7167 14.2495 11.75L17.6995 12.45C17.9328 12.5167 18.1245 12.6375 18.2745 12.8125C18.4245 12.9875 18.4995 13.1833 18.4995 13.4V17.45C18.4995 17.75 18.3995 18 18.1995 18.2C17.9995 18.4 17.7495 18.5 17.4495 18.5ZM3.52451 6.5L5.17451 4.85L4.74951 2.5H2.52451C2.60785 3.18333 2.72451 3.85833 2.87451 4.525C3.02451 5.19167 3.24118 5.85 3.52451 6.5ZM12.4745 15.45C13.1245 15.7333 13.787 15.9583 14.462 16.125C15.137 16.2917 15.8162 16.4 16.4995 16.45V14.25L14.1495 13.775L12.4745 15.45Z" fill="#A8A8A8"/>
</svg>
