<svg width="21" height="16" viewBox="0 0 21 16" fill="none" xmlns="http://www.w3.org/2000/svg">
<path d="M2.49951 16C1.94951 16 1.47868 15.8042 1.08701 15.4125C0.695345 15.0208 0.499512 14.55 0.499512 14V2C0.499512 1.45 0.695345 0.979167 1.08701 0.5875C1.47868 0.195833 1.94951 0 2.49951 0H18.4995C19.0495 0 19.5203 0.195833 19.912 0.5875C20.3037 0.979167 20.4995 1.45 20.4995 2V14C20.4995 14.55 20.3037 15.0208 19.912 15.4125C19.5203 15.8042 19.0495 16 18.4995 16H2.49951ZM18.4995 4L11.0245 8.675C10.9412 8.725 10.8537 8.7625 10.762 8.7875C10.6703 8.8125 10.5828 8.825 10.4995 8.825C10.4162 8.825 10.3287 8.8125 10.237 8.7875C10.1453 8.7625 10.0578 8.725 9.97451 8.675L2.49951 4V14H18.4995V4ZM10.4995 7L18.4995 2H2.49951L10.4995 7ZM2.49951 4.25V2.775V2.8V2.7875V4.25Z" fill="#A8A8A8"/>
</svg>
