<svg width="17" height="16" viewBox="0 0 17 16" fill="none" xmlns="http://www.w3.org/2000/svg">
<path d="M8.49951 8C7.39951 8 6.45785 7.60833 5.67451 6.825C4.89118 6.04167 4.49951 5.1 4.49951 4C4.49951 2.9 4.89118 1.95833 5.67451 1.175C6.45785 0.391667 7.39951 0 8.49951 0C9.59951 0 10.5412 0.391667 11.3245 1.175C12.1078 1.95833 12.4995 2.9 12.4995 4C12.4995 5.1 12.1078 6.04167 11.3245 6.825C10.5412 7.60833 9.59951 8 8.49951 8ZM14.4995 16H2.49951C1.94951 16 1.47868 15.8042 1.08701 15.4125C0.695345 15.0208 0.499512 14.55 0.499512 14V13.2C0.499512 12.6333 0.645345 12.1125 0.937012 11.6375C1.22868 11.1625 1.61618 10.8 2.09951 10.55C3.13284 10.0333 4.18285 9.64583 5.24951 9.3875C6.31618 9.12917 7.39951 9 8.49951 9C9.59951 9 10.6828 9.12917 11.7495 9.3875C12.8162 9.64583 13.8662 10.0333 14.8995 10.55C15.3828 10.8 15.7703 11.1625 16.062 11.6375C16.3537 12.1125 16.4995 12.6333 16.4995 13.2V14C16.4995 14.55 16.3037 15.0208 15.912 15.4125C15.5203 15.8042 15.0495 16 14.4995 16ZM2.49951 14H14.4995V13.2C14.4995 13.0167 14.4537 12.85 14.362 12.7C14.2703 12.55 14.1495 12.4333 13.9995 12.35C13.0995 11.9 12.1912 11.5625 11.2745 11.3375C10.3578 11.1125 9.43285 11 8.49951 11C7.56618 11 6.64118 11.1125 5.72451 11.3375C4.80785 11.5625 3.89951 11.9 2.99951 12.35C2.84951 12.4333 2.72868 12.55 2.63701 12.7C2.54535 12.85 2.49951 13.0167 2.49951 13.2V14ZM8.49951 6C9.04951 6 9.52035 5.80417 9.91201 5.4125C10.3037 5.02083 10.4995 4.55 10.4995 4C10.4995 3.45 10.3037 2.97917 9.91201 2.5875C9.52035 2.19583 9.04951 2 8.49951 2C7.94951 2 7.47868 2.19583 7.08701 2.5875C6.69534 2.97917 6.49951 3.45 6.49951 4C6.49951 4.55 6.69534 5.02083 7.08701 5.4125C7.47868 5.80417 7.94951 6 8.49951 6Z" fill="#A8A8A8"/>
</svg>
